<svg width="68.707008mm" height="20.1168mm" viewBox="0 0 68.707008 20.1168" xmlns="http://www.w3.org/2000/svg" xmlns:svg="http://www.w3.org/2000/svg"><g transform="translate(-19.154944,-43.185857)"> <g aria-label="foreai" transform="scale(0.26458333)" id="text541"> <path d="m 81.324641,238.29414 v -57.888 q 0,-3.744 1.632,-6.624 1.632,-2.88 4.608,-4.512 3.072,-1.728 7.104,-1.728 3.072,0 5.471999,1.152 2.496,1.056 4.128,2.976 l -2.496,5.664 q -1.536,-1.632 -3.359999,-2.304 -1.728,-0.768 -3.36,-0.768 -2.112,0 -3.552,0.768 -1.44,0.672 -2.208,2.112 -0.672,1.344 -0.672,3.264 v 57.888 h -3.36 q -1.056,0 -2.016,0 -0.96,0 -1.92,0 z m -8.928,-43.008 v -6.72 h 28.991999 v 6.72 z" id="path787" /> <path d="m 132.10862,239.25414 q -7.488,0 -13.344,-3.36 -5.76,-3.36 -9.12,-9.312 -3.264,-5.952 -3.264,-13.536 0,-7.488 3.264,-13.344 3.36,-5.856 9.12,-9.216 5.856,-3.36 13.344,-3.36 7.392,0 13.152,3.36 5.856,3.36 9.12,9.216 3.36,5.856 3.36,13.344 0,7.584 -3.36,13.536 -3.264,5.952 -9.12,9.312 -5.76,3.36 -13.152,3.36 z m 0,-6.816 q 5.28,0 9.408,-2.496 4.128,-2.592 6.432,-6.912 2.304,-4.416 2.304,-9.984 0,-5.568 -2.304,-9.888 -2.304,-4.32 -6.432,-6.72 -4.128,-2.496 -9.408,-2.496 -5.28,0 -9.504,2.496 -4.128,2.4 -6.528,6.816 -2.304,4.32 -2.208,9.792 -0.096,5.568 2.208,9.984 2.4,4.32 6.528,6.912 4.224,2.496 9.504,2.496 z" id="path789" /> <path d="m 168.20466,238.29414 v -50.112 h 7.2 l 0.192,13.344 -0.768,-1.824 q 1.056,-3.36 3.36,-6.24 2.4,-2.88 5.664,-4.608 3.264,-1.728 7.2,-1.728 1.632,0 3.072,0.288 1.44,0.192 2.4,0.576 l -2.016,8.064 q -1.248,-0.576 -2.592,-0.768 -1.248,-0.288 -2.4,-0.288 -3.264,0 -5.856,1.152 -2.592,1.152 -4.416,3.264 -1.824,2.016 -2.784,4.704 -0.96,2.688 -0.96,5.76 v 28.416 z" id="path791" /> <path d="m 223.98064,239.25414 q -7.488,0 -13.344,-3.264 -5.76,-3.264 -9.024,-9.12 -3.264,-5.856 -3.264,-13.44 0,-5.856 1.824,-10.56 1.824,-4.8 5.088,-8.352 3.36,-3.552 7.968,-5.472 4.608,-2.016 9.984,-2.016 5.088,0 9.216,1.824 4.224,1.824 7.2,5.088 3.072,3.168 4.608,7.584 1.536,4.416 1.344,9.696 l -0.096,3.36 h -41.76 l -1.056,-6.048 h 37.344 l -1.728,1.632 v -2.304 q -0.192,-3.456 -2.016,-6.624 -1.824,-3.264 -5.184,-5.28 -3.264,-2.016 -7.872,-2.016 -5.376,0 -9.312,2.208 -3.936,2.112 -6.048,6.336 -2.112,4.224 -2.112,10.464 0,5.952 2.304,10.368 2.304,4.32 6.528,6.72 4.32,2.4 10.368,2.4 3.552,0 7.008,-1.152 3.552,-1.248 7.776,-4.8 l 3.744,5.184 q -2.208,2.208 -5.28,3.936 -3.072,1.632 -6.72,2.688 -3.648,0.96 -7.488,0.96 z" id="path793" /> <path d="m 274.86067,239.25414 q -6.24,0 -11.328,-3.456 -5.088,-3.456 -8.16,-9.408 -3.072,-5.952 -3.072,-13.536 0,-7.584 3.072,-13.536 3.072,-5.952 8.352,-9.312 5.28,-3.36 11.904,-3.36 3.84,0 7.008,1.152 3.168,1.056 5.568,3.072 2.4,2.016 3.936,4.608 1.632,2.592 2.208,5.568 l -2.592,-0.672 v -12.672 h 11.904 v 50.592 h -12 v -12.096 l 2.784,-0.48 q -0.672,2.592 -2.496,5.088 -1.728,2.4 -4.416,4.32 -2.592,1.824 -5.856,2.976 -3.168,1.152 -6.816,1.152 z m 3.264,-10.464 q 4.128,0 7.296,-2.016 3.168,-2.016 4.896,-5.568 1.824,-3.648 1.824,-8.352 0,-4.608 -1.824,-8.16 -1.728,-3.552 -4.896,-5.568 -3.168,-2.016 -7.296,-2.016 -4.128,0 -7.296,2.016 -3.072,2.016 -4.8,5.568 -1.728,3.552 -1.728,8.16 0,4.704 1.728,8.352 1.728,3.552 4.8,5.568 3.168,2.016 7.296,2.016 z" id="path795" /> <path d="m 318.73268,238.29414 v -50.592 h 11.808 v 50.592 z m 5.76,-61.344 q -3.552,0 -5.568,-1.728 -1.92,-1.824 -1.92,-5.088 0,-3.072 2.016,-4.992 2.016,-1.92 5.472,-1.92 3.648,0 5.568,1.824 2.016,1.728 2.016,5.088 0,2.976 -2.016,4.896 -2.016,1.92 -5.568,1.92 z" id="path797" /> </g></g></svg>