<svg width="357" height="104" viewBox="0 0 357 104" fill="none" xmlns="http://www.w3.org/2000/svg">
<rect x="16.9999" y="20" width="16.2787" height="16.2787" rx="8.13936" fill="#075056"/>
<rect x="40.8753" y="20" width="45.5804" height="16.2787" rx="8.13936" fill="#075056"/>
<rect x="16.9998" y="43.8755" width="45.5804" height="16.2787" rx="8.13936" fill="#075056"/>
<rect opacity="0.5" x="70.1768" y="43.8756" width="16.2787" height="16.2787" rx="8.13936" fill="#075056"/>
<rect x="16.9998" y="67.751" width="16.2787" height="16.2787" rx="8.13936" fill="#075056"/>
<rect opacity="0.5" x="40.8752" y="67.751" width="45.5804" height="16.2787" rx="8.13936" fill="#075056"/>
<path d="M113.611 85V38.2087C113.611 35.3867 113.964 32.8967 114.67 30.7387C115.375 28.5669 116.413 26.7547 117.782 25.3022C119.165 23.8497 120.874 22.75 122.907 22.003C124.941 21.256 127.292 20.8825 129.962 20.8825C131.11 20.8825 132.293 20.9517 133.511 21.09C134.742 21.2145 136.021 21.4151 137.349 21.6917V28.9542C136.132 28.7052 135.011 28.5185 133.988 28.394C132.964 28.2695 132.01 28.2072 131.124 28.2072C129.533 28.2072 128.136 28.4147 126.933 28.8297C125.743 29.2447 124.754 29.8672 123.966 30.6972C123.177 31.5272 122.582 32.5717 122.181 33.8305C121.794 35.0755 121.6 36.5349 121.6 38.2087V42.9605H122.015V85H113.611ZM137.37 39.2462V46.3012H106.66V39.2462H137.37ZM136.848 62.1127C136.848 59.7057 137.09 57.4371 137.574 55.3067C138.058 53.1764 138.757 51.219 139.67 49.4345C140.583 47.65 141.69 46.0522 142.99 44.6412C144.304 43.2164 145.791 42.0129 147.451 41.0307C149.111 40.0486 150.923 39.3016 152.888 38.7898C154.866 38.2641 156.976 38.0012 159.217 38.0012C161.458 38.0012 163.56 38.2641 165.525 38.7898C167.503 39.3016 169.322 40.0486 170.982 41.0307C172.642 42.0129 174.122 43.2164 175.422 44.6412C176.736 46.0522 177.85 47.65 178.763 49.4345C179.676 51.219 180.375 53.1764 180.859 55.3067C181.343 57.4371 181.585 59.7057 181.585 62.1127C181.585 64.5197 181.343 66.7884 180.859 68.9187C180.375 71.0491 179.676 73.0134 178.763 74.8117C177.85 76.5962 176.736 78.194 175.422 79.605C174.108 81.016 172.621 82.2195 170.961 83.2155C169.315 84.1977 167.503 84.9447 165.525 85.4565C163.56 85.9822 161.458 86.245 159.217 86.245C156.976 86.245 154.866 85.9822 152.888 85.4565C150.923 84.9447 149.111 84.1977 147.451 83.2155C145.805 82.2195 144.325 81.016 143.011 79.605C141.697 78.194 140.583 76.5962 139.67 74.8117C138.757 73.0134 138.058 71.0491 137.574 68.9187C137.09 66.7884 136.848 64.5197 136.848 62.1127ZM145.252 62.1127C145.252 64.6719 145.57 66.9752 146.206 69.0225C146.856 71.056 147.783 72.7852 148.987 74.21C150.204 75.6348 151.677 76.7346 153.407 77.5092C155.136 78.2701 157.079 78.6505 159.237 78.6505C161.395 78.6505 163.332 78.2701 165.047 77.5092C166.776 76.7484 168.243 75.6556 169.446 74.2307C170.65 72.7921 171.57 71.056 172.206 69.0225C172.856 66.9752 173.181 64.6719 173.181 62.1127C173.181 59.5536 172.856 57.2572 172.206 55.2237C171.57 53.1764 170.65 51.4403 169.446 50.0155C168.243 48.5907 166.776 47.4978 165.047 46.737C163.332 45.9762 161.395 45.5957 159.237 45.5957C157.079 45.5957 155.136 45.9762 153.407 46.737C151.677 47.4978 150.204 48.5907 148.987 50.0155C147.783 51.4403 146.856 53.1764 146.206 55.2237C145.57 57.2572 145.252 59.5536 145.252 62.1127ZM194.741 62.3202V85H186.337V39.2462H194.741V54.0825L194.678 54.1032C195.19 51.7931 195.944 49.7181 196.94 47.8782C197.95 46.0384 199.195 44.4822 200.675 43.2095C202.169 41.923 203.898 40.9408 205.863 40.263C207.827 39.5852 210.026 39.2462 212.461 39.2462H214.536V47.2557H212.482C209.134 47.2557 206.326 47.567 204.057 48.1895C201.789 48.7982 199.963 49.725 198.579 50.97C197.21 52.215 196.228 53.7851 195.633 55.6802C195.038 57.5616 194.741 59.7749 194.741 62.3202ZM224.728 62.2787C224.728 64.7964 225.06 67.0651 225.724 69.0847C226.388 71.1044 227.335 72.8267 228.566 74.2515C229.811 75.6625 231.312 76.7484 233.069 77.5092C234.84 78.2701 236.825 78.6505 239.024 78.6505C240.532 78.6505 241.922 78.4637 243.195 78.0902C244.468 77.7167 245.616 77.1634 246.64 76.4302C247.677 75.6832 248.59 74.7633 249.379 73.6705C250.181 72.5638 250.859 71.2842 251.412 69.8317H259.816C259.221 72.3909 258.294 74.6872 257.035 76.7207C255.776 78.7542 254.241 80.4765 252.429 81.8875C250.63 83.2985 248.576 84.3775 246.266 85.1245C243.97 85.8715 241.487 86.245 238.817 86.245C235.441 86.245 232.37 85.664 229.604 84.502C226.851 83.34 224.485 81.7007 222.507 79.5842C220.543 77.4677 219.021 74.9224 217.942 71.9482C216.863 68.9741 216.324 65.6748 216.324 62.0505C216.324 58.4538 216.856 55.1822 217.922 52.2357C218.987 49.2754 220.495 46.7439 222.445 44.6412C224.396 42.5247 226.733 40.8924 229.459 39.7443C232.198 38.5822 235.227 38.0012 238.547 38.0012C241.826 38.0012 244.786 38.5684 247.428 39.7027C250.07 40.8232 252.325 42.421 254.193 44.496C256.06 46.571 257.499 49.0817 258.509 52.0282C259.518 54.9747 260.023 58.274 260.023 61.926C260.023 62.4517 260.009 62.9773 259.982 63.503C259.968 64.0148 259.933 64.5751 259.878 65.1837H222.943V57.9212H255.915L251.474 65.1215C251.516 64.6512 251.543 64.167 251.557 63.669C251.585 63.171 251.599 62.673 251.599 62.175C251.599 59.519 251.308 57.1673 250.727 55.12C250.16 53.0588 249.323 51.3227 248.217 49.9117C247.11 48.5007 245.747 47.4287 244.129 46.6955C242.524 45.9623 240.677 45.5957 238.589 45.5957C236.444 45.5957 234.515 45.9762 232.799 46.737C231.098 47.4978 229.645 48.5907 228.442 50.0155C227.252 51.4403 226.332 53.1695 225.682 55.203C225.046 57.2365 224.728 59.519 224.728 62.0505V62.2787ZM282.675 55.1822C282.675 52.5539 283.159 50.1815 284.128 48.065C285.096 45.9485 286.479 44.1432 288.278 42.6492C290.09 41.1552 292.282 40.0071 294.855 39.2047C297.428 38.4024 300.313 38.0012 303.508 38.0012C306.897 38.0012 309.934 38.4577 312.617 39.3707C315.301 40.2699 317.577 41.5702 319.444 43.2717C321.312 44.9732 322.743 47.0552 323.739 49.5175C324.735 51.966 325.233 54.7465 325.233 57.859V85H316.83V72.467H316.892C316.532 73.8918 316.041 75.2198 315.419 76.451C314.796 77.6822 314.056 78.8096 313.198 79.8332C312.341 80.8569 311.365 81.7699 310.273 82.5722C309.194 83.3607 308.011 84.0317 306.724 84.585C305.452 85.1245 304.082 85.5326 302.616 85.8093C301.15 86.0998 299.607 86.245 297.989 86.245C295.485 86.245 293.209 85.913 291.162 85.249C289.115 84.5988 287.358 83.672 285.891 82.4685C284.439 81.2512 283.311 79.7987 282.509 78.111C281.721 76.4095 281.326 74.5212 281.326 72.4462C281.326 70.3574 281.734 68.4761 282.551 66.8022C283.381 65.1284 284.563 63.7105 286.099 62.5485C287.648 61.3727 289.523 60.4735 291.722 59.851C293.922 59.2285 296.405 58.9172 299.171 58.9172H317.141V65.9722H299.088C297.539 65.9722 296.176 66.1037 295.001 66.3665C293.825 66.6293 292.836 67.0236 292.033 67.5492C291.245 68.0749 290.643 68.7251 290.228 69.4997C289.827 70.2744 289.626 71.1667 289.626 72.1765C289.626 73.2555 289.855 74.2169 290.311 75.0607C290.781 75.9046 291.466 76.6101 292.365 77.1772C293.265 77.7444 294.371 78.1802 295.685 78.4845C297.013 78.775 298.535 78.9202 300.25 78.9202C301.869 78.9202 303.397 78.7888 304.836 78.526C306.289 78.2632 307.63 77.8897 308.862 77.4055C310.093 76.9213 311.199 76.3334 312.182 75.6417C313.164 74.9501 314.001 74.1754 314.692 73.3177C315.384 72.4462 315.91 71.4987 316.269 70.475C316.643 69.4513 316.83 68.3723 316.83 67.238V57.859C316.83 55.9777 316.511 54.2831 315.875 52.7752C315.253 51.2674 314.36 49.9809 313.198 48.9157C312.036 47.8506 310.625 47.0344 308.965 46.4672C307.305 45.9001 305.438 45.6165 303.363 45.6165C301.246 45.6165 299.413 45.8447 297.864 46.3012C296.329 46.7577 295.056 47.401 294.046 48.231C293.05 49.061 292.303 50.0708 291.805 51.2605C291.321 52.4363 291.079 53.7436 291.079 55.1822H282.675ZM339.264 39.2462V85H330.861V39.2462H339.264ZM339.472 23.58V33.955H330.653V23.58H339.472Z" fill="#075056"/>
</svg>
