<svg version="1.1" id="Layer_1" xmlns="http://www.w3.org/2000/svg" xmlns:xlink="http://www.w3.org/1999/xlink" x="0px" y="0px"
	 width="100%" viewBox="0 0 352 319" enable-background="new 0 0 352 319" xml:space="preserve">
<path fill="#FFFEFF" opacity="1.000000" stroke="none" 
	d="
M202.000000,320.000000 
	C134.666672,320.000000 67.833336,320.000000 1.000000,320.000000 
	C1.000000,213.666672 1.000000,107.333336 1.000000,1.000000 
	C118.333336,1.000000 235.666672,1.000000 353.000000,1.000000 
	C353.000000,107.333336 353.000000,213.666672 353.000000,320.000000 
	C302.833344,320.000000 252.666672,320.000000 202.000000,320.000000 
M64.099464,291.695709 
	C123.051109,275.307983 163.545685,224.337631 164.622238,163.498871 
	C165.412186,118.856682 164.758911,74.189537 164.878998,29.533865 
	C164.889038,25.803358 163.450073,25.072664 160.128418,25.234127 
	C145.046402,25.967239 130.330917,28.584509 116.260483,34.080296 
	C62.737766,54.985817 29.095564,104.370796 29.023668,162.014526 
	C28.970259,204.837616 29.012308,247.660797 29.011847,290.483948 
	C29.011827,292.240845 29.011843,293.997711 29.011843,297.254761 
	C41.065689,295.363770 52.182590,293.619781 64.099464,291.695709 
M198.406464,56.499893 
	C198.406464,91.207558 198.406464,125.915215 198.406464,160.603226 
	C279.566833,161.465607 336.966156,90.290070 333.334229,25.451038 
	C288.608307,25.451038 243.873978,25.451038 198.406876,25.451038 
	C198.406876,35.621525 198.406876,45.560699 198.406464,56.499893 
M258.107361,203.173615 
	C224.850357,195.232513 199.455353,220.013641 198.479691,246.914124 
	C197.305298,279.293884 228.455933,304.925140 261.475800,293.381958 
	C281.955353,286.222687 293.675720,268.039490 293.067535,246.743744 
	C292.505676,227.069244 278.964691,209.881180 258.107361,203.173615 
z"/>
<path fill="#5732D4" opacity="1.000000" stroke="none" 
	d="
M63.699478,291.785736 
	C52.182590,293.619781 41.065689,295.363770 29.011843,297.254761 
	C29.011843,293.997711 29.011827,292.240845 29.011847,290.483948 
	C29.012308,247.660797 28.970259,204.837616 29.023668,162.014526 
	C29.095564,104.370796 62.737766,54.985817 116.260483,34.080296 
	C130.330917,28.584509 145.046402,25.967239 160.128418,25.234127 
	C163.450073,25.072664 164.889038,25.803358 164.878998,29.533865 
	C164.758911,74.189537 165.412186,118.856682 164.622238,163.498871 
	C163.545685,224.337631 123.051109,275.307983 63.699478,291.785736 
z"/>
<path fill="#E76A2F" opacity="1.000000" stroke="none" 
	d="
M198.406677,55.999886 
	C198.406876,45.560699 198.406876,35.621525 198.406876,25.451038 
	C243.873978,25.451038 288.608307,25.451038 333.334229,25.451038 
	C336.966156,90.290070 279.566833,161.465607 198.406464,160.603226 
	C198.406464,125.915215 198.406464,91.207558 198.406677,55.999886 
z"/>
<path fill="#112B6F" opacity="1.000000" stroke="none" 
	d="
M258.506592,203.277359 
	C278.964691,209.881180 292.505676,227.069244 293.067535,246.743744 
	C293.675720,268.039490 281.955353,286.222687 261.475800,293.381958 
	C228.455933,304.925140 197.305298,279.293884 198.479691,246.914124 
	C199.455353,220.013641 224.850357,195.232513 258.506592,203.277359 
z"/>
</svg>