<?xml version="1.0" encoding="UTF-8" standalone="no" ?>
<!DOCTYPE svg PUBLIC "-//W3C//DTD SVG 1.1//EN" "http://www.w3.org/Graphics/SVG/1.1/DTD/svg11.dtd">
<svg xmlns="http://www.w3.org/2000/svg" xmlns:xlink="http://www.w3.org/1999/xlink" version="1.1" width="6000" height="6000" viewBox="0 0 6000 6000" xml:space="preserve">
<desc>Created with Fabric.js 5.2.4</desc>
<defs>
</defs>
<rect x="0" y="0" width="100%" height="100%" fill="transparent"></rect>
<g transform="matrix(1 0 0 1 3000 3000)" id="597c275c-9a74-4626-9b32-e02a5b155313"  >
<rect style="stroke: none; stroke-width: 1; stroke-dasharray: none; stroke-linecap: butt; stroke-dashoffset: 0; stroke-linejoin: miter; stroke-miterlimit: 4; fill: rgb(255,255,255); fill-rule: nonzero; opacity: 1; visibility: hidden;" vector-effect="non-scaling-stroke"  x="-3000" y="-3000" rx="0" ry="0" width="6000" height="6000" />
</g>
<g transform="matrix(Infinity NaN NaN Infinity 0 0)" id="46c23392-abc4-4fc5-9006-66cab0b761de"  >
</g>
<g transform="matrix(45.61 0 0 45.61 3017.71 2560.65)"  >
<g style="" vector-effect="non-scaling-stroke"   >
		<g transform="matrix(1 0 0 1 -113.9 1.68)" id="path787"  >
<path style="stroke: none; stroke-width: 1; stroke-dasharray: none; stroke-linecap: butt; stroke-dashoffset: 0; stroke-linejoin: miter; stroke-miterlimit: 4; fill: rgb(255,255,255); fill-rule: nonzero; opacity: 1;" vector-effect="non-scaling-stroke"  transform=" translate(-88.33, -202.92)" d="M 81.324641 238.29414 L 81.324641 180.40614 Q 81.324641 176.66214 82.956641 173.78214 Q 84.58864100000001 170.90214 87.56464100000001 169.27014 Q 90.63664100000001 167.54214 94.66864100000001 167.54214 Q 97.74064100000001 167.54214 100.14064 168.69413999999998 Q 102.63664 169.75014 104.26864 171.67013999999998 L 101.77264000000001 177.33413999999996 Q 100.23664000000001 175.70213999999996 98.41264100000001 175.03013999999996 Q 96.68464100000001 174.26213999999996 95.05264100000001 174.26213999999996 Q 92.94064100000001 174.26213999999996 91.500641 175.03013999999996 Q 90.060641 175.70213999999996 89.292641 177.14213999999996 Q 88.620641 178.48613999999995 88.620641 180.40613999999997 L 88.620641 238.29413999999997 L 85.260641 238.29413999999997 Q 84.20464100000001 238.29413999999997 83.244641 238.29413999999997 Q 82.28464100000001 238.29413999999997 81.324641 238.29413999999997 z M 72.396641 195.28614 L 72.396641 188.56614 L 101.38864000000001 188.56614 L 101.38864000000001 195.28614 z" stroke-linecap="round" />
</g>
		<g transform="matrix(1 0 0 1 -70.18 11.95)" id="path789"  >
<path style="stroke: none; stroke-width: 1; stroke-dasharray: none; stroke-linecap: butt; stroke-dashoffset: 0; stroke-linejoin: miter; stroke-miterlimit: 4; fill: rgb(255,255,255); fill-rule: nonzero; opacity: 1;" vector-effect="non-scaling-stroke"  transform=" translate(-132.06, -213.19)" d="M 132.10862 239.25414 Q 124.62062 239.25414 118.76462000000001 235.89414 Q 113.00462 232.53413999999998 109.64462 226.58213999999998 Q 106.38062000000001 220.63013999999998 106.38062000000001 213.04613999999998 Q 106.38062000000001 205.55813999999998 109.64462 199.70213999999999 Q 113.00462 193.84614 118.76462000000001 190.48613999999998 Q 124.62062 187.12613999999996 132.10862 187.12613999999996 Q 139.50062 187.12613999999996 145.26062 190.48613999999998 Q 151.11661999999998 193.84614 154.38062 199.70213999999999 Q 157.74062 205.55813999999998 157.74062 213.04613999999998 Q 157.74062 220.63013999999998 154.38062 226.58213999999998 Q 151.11661999999998 232.53413999999998 145.26062 235.89414 Q 139.50062 239.25414 132.10862 239.25414 z M 132.10862 232.43814 Q 137.38862 232.43814 141.51662 229.94214 Q 145.64461999999997 227.35013999999998 147.94861999999998 223.03014 Q 150.25261999999998 218.61414 150.25261999999998 213.04613999999998 Q 150.25261999999998 207.47813999999997 147.94861999999998 203.15813999999997 Q 145.64461999999997 198.83813999999998 141.51662 196.43813999999998 Q 137.38862 193.94213999999997 132.10862 193.94213999999997 Q 126.82862 193.94213999999997 122.60462 196.43813999999998 Q 118.47662 198.83813999999998 116.07661999999999 203.25413999999998 Q 113.77261999999999 207.57413999999997 113.86861999999999 213.04613999999998 Q 113.77261999999999 218.61414 116.07661999999999 223.03014 Q 118.47662 227.35013999999998 122.60462 229.94214 Q 126.82862 232.43814 132.10862 232.43814 z" stroke-linecap="round" />
</g>
		<g transform="matrix(1 0 0 1 -19.87 11.47)" id="path791"  >
<path style="stroke: none; stroke-width: 1; stroke-dasharray: none; stroke-linecap: butt; stroke-dashoffset: 0; stroke-linejoin: miter; stroke-miterlimit: 4; fill: rgb(255,255,255); fill-rule: nonzero; opacity: 1;" vector-effect="non-scaling-stroke"  transform=" translate(-182.36, -212.71)" d="M 168.20466 238.29414 L 168.20466 188.18214 L 175.40465999999998 188.18214 L 175.59665999999999 201.52614 L 174.82865999999999 199.70213999999999 Q 175.88466 196.34213999999997 178.18866 193.46213999999998 Q 180.58866 190.58213999999998 183.85266 188.85413999999997 Q 187.11666 187.12613999999996 191.05265999999997 187.12613999999996 Q 192.68465999999998 187.12613999999996 194.12465999999998 187.41413999999997 Q 195.56465999999998 187.60613999999998 196.52465999999998 187.99013999999997 L 194.50866 196.05413999999996 Q 193.26066 195.47813999999997 191.91665999999998 195.28613999999996 Q 190.66866 194.99813999999995 189.51665999999997 194.99813999999995 Q 186.25265999999996 194.99813999999995 183.66065999999998 196.15013999999994 Q 181.06865999999997 197.30213999999992 179.24465999999998 199.41413999999995 Q 177.42065999999997 201.43013999999994 176.46066 204.11813999999995 Q 175.50065999999998 206.80613999999994 175.50065999999998 209.87813999999995 L 175.50065999999998 238.29413999999994 z" stroke-linecap="round" />
</g>
		<g transform="matrix(1 0 0 1 19.77 11.9)" id="path793"  >
<path style="stroke: none; stroke-width: 1; stroke-dasharray: none; stroke-linecap: butt; stroke-dashoffset: 0; stroke-linejoin: miter; stroke-miterlimit: 4; fill: rgb(255,255,255); fill-rule: nonzero; opacity: 1;" vector-effect="non-scaling-stroke"  transform=" translate(-222.01, -213.14)" d="M 223.98064 239.25414 Q 216.49264 239.25414 210.63664 235.99014 Q 204.87664 232.72614 201.61264 226.87014 Q 198.34864 221.01414 198.34864 213.43014 Q 198.34864 207.57414 200.17264 202.87014 Q 201.99664 198.07013999999998 205.26064 194.51814 Q 208.62064 190.96614 213.22863999999998 189.04613999999998 Q 217.83664 187.03014 223.21264 187.03014 Q 228.30064 187.03014 232.42864 188.85414 Q 236.65264 190.67814 239.62864 193.94214 Q 242.70064 197.11014 244.23664 201.52614 Q 245.77264 205.94214 245.58064 211.22214 L 245.48463999999998 214.58214 L 203.72464 214.58214 L 202.66863999999998 208.53414 L 240.01263999999998 208.53414 L 238.28463999999997 210.16614 L 238.28463999999997 207.86214 Q 238.09263999999996 204.40614000000002 236.26863999999998 201.23814000000002 Q 234.44463999999996 197.97414 231.08463999999998 195.95814000000001 Q 227.82063999999997 193.94214000000002 223.21263999999996 193.94214000000002 Q 217.83663999999996 193.94214000000002 213.90063999999995 196.15014000000002 Q 209.96463999999995 198.26214000000002 207.85263999999995 202.48614000000003 Q 205.74063999999996 206.71014000000002 205.74063999999996 212.95014000000003 Q 205.74063999999996 218.90214000000003 208.04463999999996 223.31814000000003 Q 210.34863999999996 227.63814000000002 214.57263999999995 230.03814000000003 Q 218.89263999999994 232.43814000000003 224.94063999999995 232.43814000000003 Q 228.49263999999994 232.43814000000003 231.94863999999995 231.28614000000005 Q 235.50063999999995 230.03814000000006 239.72463999999997 226.48614000000003 L 243.46863999999997 231.67014000000003 Q 241.26063999999997 233.87814000000003 238.18863999999996 235.60614000000004 Q 235.11663999999996 237.23814000000004 231.46863999999997 238.29414000000003 Q 227.82063999999997 239.25414000000004 223.98063999999997 239.25414000000004 z" stroke-linecap="round" />
</g>
		<g transform="matrix(1 0 0 1 75.74 11.71)" id="path795"  >
<path style="stroke: none; stroke-width: 1; stroke-dasharray: none; stroke-linecap: butt; stroke-dashoffset: 0; stroke-linejoin: miter; stroke-miterlimit: 4; fill: rgb(255,255,255); fill-rule: nonzero; opacity: 1;" vector-effect="non-scaling-stroke"  transform=" translate(-277.98, -212.95)" d="M 274.86067 239.25414 Q 268.62067 239.25414 263.53267000000005 235.79814000000002 Q 258.44467000000003 232.34214000000003 255.37267000000006 226.39014000000003 Q 252.30067000000005 220.43814000000003 252.30067000000005 212.85414000000003 Q 252.30067000000005 205.27014000000003 255.37267000000006 199.31814000000003 Q 258.44467000000003 193.36614000000003 263.72467000000006 190.00614000000002 Q 269.00467000000003 186.64614 275.62867000000006 186.64614 Q 279.46867000000003 186.64614 282.63667000000004 187.79814 Q 285.80467000000004 188.85414 288.20467 190.87014 Q 290.60467 192.88613999999998 292.14067 195.47814 Q 293.77267 198.07014 294.34867 201.04614 L 291.75667000000004 200.37414 L 291.75667000000004 187.70214 L 303.66067000000004 187.70214 L 303.66067000000004 238.29414000000003 L 291.66067000000004 238.29414000000003 L 291.66067000000004 226.19814000000002 L 294.44467000000003 225.71814000000003 Q 293.77267 228.31014000000005 291.94867000000005 230.80614000000003 Q 290.22067000000004 233.20614000000003 287.53267000000005 235.12614000000002 Q 284.94067000000007 236.95014000000003 281.67667000000006 238.10214000000002 Q 278.50867000000005 239.25414 274.8606700000001 239.25414 z M 278.12467000000004 228.79014 Q 282.25267 228.79014 285.42067000000003 226.77414000000002 Q 288.58867000000004 224.75814000000003 290.31667000000004 221.20614 Q 292.14067000000006 217.55814 292.14067000000006 212.85414 Q 292.14067000000006 208.24614 290.31667000000004 204.69414 Q 288.58867000000004 201.14214 285.42067000000003 199.12614 Q 282.25267 197.11014 278.12467000000004 197.11014 Q 273.99667000000005 197.11014 270.82867000000005 199.12614 Q 267.75667000000004 201.14213999999998 266.02867000000003 204.69414 Q 264.30067 208.24614 264.30067 212.85414 Q 264.30067 217.55814 266.02867000000003 221.20614 Q 267.75667000000004 224.75814 270.82867000000005 226.77414000000002 Q 273.99667000000005 228.79014 278.12467000000004 228.79014 z" stroke-linecap="round" />
</g>
		<g transform="matrix(1 0 0 1 122.3 -0.48)" id="path797"  >
<path style="stroke: none; stroke-width: 1; stroke-dasharray: none; stroke-linecap: butt; stroke-dashoffset: 0; stroke-linejoin: miter; stroke-miterlimit: 4; fill: rgb(255,255,255); fill-rule: nonzero; opacity: 1;" vector-effect="non-scaling-stroke"  transform=" translate(-324.54, -200.76)" d="M 318.73268 238.29414 L 318.73268 187.70213999999999 L 330.54068 187.70213999999999 L 330.54068 238.29413999999997 z M 324.49268 176.95014 Q 320.94068 176.95014 318.92468 175.22214 Q 317.00468 173.39813999999998 317.00468 170.13414 Q 317.00468 167.06214 319.02068 165.14214 Q 321.03668000000005 163.22214000000002 324.49268 163.22214000000002 Q 328.14068000000003 163.22214000000002 330.06068 165.04614000000004 Q 332.07668 166.77414000000005 332.07668 170.13414000000003 Q 332.07668 173.11014000000003 330.06068 175.03014000000002 Q 328.04467999999997 176.95014 324.49268 176.95014 z" stroke-linecap="round" />
</g>
</g>
</g>
</svg>