<?xml version="1.0" encoding="UTF-8"?>
<svg id="Layer_1" data-name="Layer 1" xmlns="http://www.w3.org/2000/svg" viewBox="0 0 2700 1000">
  <defs>
    <style>
      .cls-1 {
        opacity: .6;
      }

      .cls-1, .cls-2 {
        fill: #fff;
        stroke-width: 0px;
      }
    </style>
  </defs>
  <g>
    <path class="cls-2" d="M1089.33,283.6c15.38,0,27.92,1.19,37.63,3.57,9.7,2.39,16.01,4.49,18.95,6.32l-7.14,30.76c-4.03-1.83-9.98-3.75-17.86-5.77-7.88-2.01-17.84-3.02-29.93-3.02-25.26,0-43.3,6.41-54.1,19.22-10.8,12.82-16.2,33.33-16.2,61.52v29.66h114.25v30.21h-114.25v253.75h-35.7v-314.72c0-36.98,8.52-64.81,25.54-83.49,17.03-18.67,43.3-28.01,78.82-28.01Z"/>
    <path class="cls-2" d="M1433.71,568.11c0,22.34-3.21,42.66-9.61,60.97-6.42,18.31-15.38,33.87-26.91,46.69-11.54,12.82-25.18,22.8-40.92,29.93-15.75,7.14-33.14,10.71-52.18,10.71s-36.44-3.57-52.17-10.71c-15.75-7.14-29.39-17.11-40.92-29.93-11.54-12.81-20.52-28.37-26.92-46.69-6.41-18.3-9.6-38.63-9.6-60.97s3.2-42.65,9.6-60.97c6.41-18.3,15.38-33.96,26.92-46.96,11.53-13,25.17-23.07,40.92-30.21,15.73-7.14,33.13-10.71,52.17-10.71s36.43,3.57,52.18,10.71c15.74,7.14,29.38,17.22,40.92,30.21,11.53,13,20.5,28.65,26.91,46.96,6.41,18.31,9.61,38.63,9.61,60.97ZM1395.82,568.11c0-35.51-8.24-63.8-24.72-84.86-16.47-21.05-38.82-31.58-67.01-31.58s-50.53,10.53-67.01,31.58c-16.48,21.06-24.71,49.35-24.71,84.86s8.23,63.72,24.71,84.58c16.47,20.87,38.8,31.31,67.01,31.31s50.53-10.44,67.01-31.31c16.48-20.87,24.72-49.06,24.72-84.58Z"/>
    <path class="cls-2" d="M1607.81,420.36c11.72,0,22.8.92,33.22,2.74,10.44,1.84,17.67,3.67,21.7,5.49l-7.14,30.76c-2.94-1.46-8.89-3.02-17.86-4.67-8.97-1.65-20.78-2.48-35.43-2.48-15.37,0-27.74,1.1-37.07,3.3s-15.47,4.03-18.4,5.49v248.81h-35.7v-270.78c9.15-4.02,21.79-8.14,37.9-12.36,16.11-4.2,35.71-6.31,58.77-6.31Z"/>
    <path class="cls-2" d="M1699.54,567.56c0-24.9,3.57-46.59,10.71-65.09,7.14-18.48,16.47-33.96,28.02-46.41,11.53-12.44,24.71-21.7,39.54-27.74,14.83-6.04,30.12-9.06,45.87-9.06,34.78,0,62.52,11.35,83.21,34.05,20.68,22.71,31.03,57.67,31.03,104.91,0,2.93-.09,5.86-.27,8.79-.2,2.93-.46,5.68-.83,8.24h-199.38c1.09,34.79,9.7,61.52,25.81,80.19s41.74,28.01,76.9,28.01c19.4,0,34.78-1.83,46.14-5.49,11.35-3.66,19.59-6.77,24.71-9.34l6.59,30.76c-5.13,2.93-14.74,6.41-28.83,10.43-14.1,4.02-30.68,6.04-49.71,6.04-24.91,0-46.14-3.66-63.72-10.98-17.58-7.32-32.05-17.58-43.39-30.76s-19.59-28.84-24.71-46.96c-5.13-18.12-7.68-37.98-7.68-59.59ZM1901.11,545.04c-.74-29.66-7.69-52.72-20.88-69.2s-31.85-24.72-56.02-24.72c-12.82,0-24.26,2.57-34.33,7.69-10.08,5.13-18.87,12-26.36,20.6-7.51,8.61-13.37,18.59-17.58,29.93-4.21,11.35-6.68,23.26-7.42,35.7h162.58Z"/>
    <path class="cls-2" d="M2108.17,415.41c21.97,0,40.46,2.75,55.47,8.24,15.01,5.49,27,13.18,35.98,23.06,8.96,9.89,15.38,21.89,19.23,35.98,3.84,14.1,5.77,29.57,5.77,46.41v174.11c-10.25,2.2-25.74,4.86-46.42,7.96-20.69,3.11-44.03,4.67-70.03,4.67-17.22,0-32.96-1.65-47.23-4.94-14.29-3.3-26.46-8.6-36.53-15.93-10.08-7.32-17.95-16.84-23.62-28.56-5.68-11.72-8.51-26.17-8.51-43.39s3.2-30.39,9.61-41.74c6.4-11.35,15.1-20.6,26.09-27.74,10.99-7.14,23.7-12.26,38.18-15.38,14.46-3.1,29.56-4.67,45.31-4.67,7.31,0,15.01.46,23.06,1.37,8.06.92,16.66,2.47,25.82,4.67v-10.99c0-7.69-.92-15.01-2.74-21.97-1.84-6.95-5.04-13.08-9.61-18.4-4.59-5.3-10.62-9.42-18.12-12.36-7.51-2.93-16.95-4.39-28.29-4.39-15.38,0-29.48,1.1-42.29,3.3-12.82,2.2-23.26,4.76-31.31,7.69l-8.24-53.83c8.43-2.92,20.68-5.85,36.8-8.79,16.11-2.92,33.32-4.39,51.63-4.39ZM2113.66,663.13c20.5,0,36.06-1.1,46.69-3.3v-73.6c-3.66-1.1-8.97-2.2-15.93-3.3-6.96-1.1-14.66-1.65-23.07-1.65-7.32,0-14.74.55-22.24,1.65-7.51,1.1-14.29,3.12-20.33,6.04-6.03,2.93-10.89,7.06-14.55,12.36-3.66,5.31-5.49,12-5.49,20.05,0,15.75,4.94,26.64,14.83,32.68,9.88,6.04,23.25,9.06,40.09,9.06Z"/>
    <path class="cls-2" d="M2380.05,338.52c0,12.45-4.03,22.34-12.09,29.66-8.06,7.33-17.58,10.99-28.56,10.99s-21.06-3.65-29.11-10.99c-8.06-7.32-12.08-17.21-12.08-29.66s4.02-22.88,12.08-30.21c8.05-7.32,17.75-10.98,29.11-10.98s20.51,3.66,28.56,10.98c8.06,7.33,12.09,17.4,12.09,30.21ZM2372.9,709.81h-66.46v-287.26h66.46v287.26Z"/>
  </g>
  <g>
    <g>
      <path class="cls-2" d="M360.09,456.92h161.4c22.15,0,40.14,17.99,40.14,40.14v5.88c0,22.15-17.99,40.14-40.14,40.14h-161.4c-22.15,0-40.14-17.99-40.14-40.14v-5.88c0-22.15,17.99-40.14,40.14-40.14Z"/>
      <path class="cls-1" d="M644.17,456.92h15.9c22.15,0,40.14,17.99,40.14,40.14v5.88c0,22.15-17.99,40.14-40.14,40.14h-15.9c-22.15,0-40.14-17.99-40.14-40.14v-5.88c0-22.15,17.99-40.14,40.14-40.14Z"/>
    </g>
    <g>
      <path class="cls-1" d="M488.51,602.11h171.55c22.15,0,40.14,17.99,40.14,40.14v5.88c0,22.15-17.99,40.14-40.14,40.14h-171.55c-22.15,0-40.14-17.99-40.14-40.14v-5.88c0-22.15,17.99-40.14,40.14-40.14Z"/>
      <path class="cls-2" d="M360.09,602.11h5.88c22.15,0,40.14,17.99,40.14,40.14v5.88c0,22.15-17.99,40.14-40.14,40.14h-5.88c-22.15,0-40.14-17.99-40.14-40.14v-5.88c0-22.15,17.99-40.14,40.14-40.14Z"/>
    </g>
    <g>
      <path class="cls-2" d="M488.51,311.73h172.5c22.15,0,40.14,17.99,40.14,40.14v5.88c0,22.15-17.99,40.14-40.14,40.14h-172.5c-22.15,0-40.14-17.99-40.14-40.14v-5.88c0-22.15,17.99-40.14,40.14-40.14Z"/>
      <path class="cls-2" d="M360.09,311.73h5.88c22.15,0,40.14,17.99,40.14,40.14v5.88c0,22.15-17.99,40.14-40.14,40.14h-5.88c-22.15,0-40.14-17.99-40.14-40.14v-5.88c0-22.15,17.99-40.14,40.14-40.14Z"/>
    </g>
  </g>
</svg>